<svg xmlns="http://www.w3.org/2000/svg" width="196" height="86.577" viewBox="0 0 196 86.577">
  <g id="Group_779" data-name="Group 779" transform="translate(-53 -56.852)">
    <g id="Group_236" data-name="Group 236" transform="translate(-217.953 314.047)">
      <g id="Group_234" data-name="Group 234" transform="translate(280.953 -256.047)">
        <text id="_ATE" data-name="  ATE" transform="translate(75 39)" font-size="45" font-family="TwCenMT-Regular, Tw Cen MT" letter-spacing="0.087em"><tspan x="0" y="0" xml:space="preserve">  </tspan><tspan y="0" letter-spacing="0.12em">ATE</tspan></text>
        <text id="FOREVER_CURIOUS" data-name="FOREVER CURIOUS" transform="translate(77 51)" font-size="10" font-family="TwCenMT-Regular, Tw Cen MT" letter-spacing="0.203em"><tspan x="0" y="0">FOREVER CURIOUS</tspan></text>
      </g>
    </g>
    <text id="K" transform="translate(53 97)" font-size="45" font-family="TwCenMT-Regular, Tw Cen MT" letter-spacing="0.12em"><tspan x="0" y="0">K</tspan></text>
    <text id="O" transform="translate(89 97)" font-size="45" font-family="TwCenMT-Regular, Tw Cen MT" letter-spacing="0.12em" opacity="0"><tspan x="0" y="0">O</tspan></text>
    <path id="Path_670" data-name="Path 670" d="M224.3,168.957a.83.83,0,0,0-.157,0c-.823-2.892-4.48-4.818-7.225-3.518a.689.689,0,0,0-.343-.272.7.7,0,0,0-.4-.4.837.837,0,0,0-.092-.092,4.7,4.7,0,0,0-5.94-.163,3.576,3.576,0,0,0-.744.733.743.743,0,0,0-.491-.171.86.86,0,0,0-.15-.063c-2.52-.754-5.413.324-6.06,3.082a.819.819,0,0,0-.011.345,5.014,5.014,0,0,0-1.174-.08c-2.122.1-3.63,2.251-3.641,4.264a.872.872,0,0,0,.015.166,3.412,3.412,0,0,0-.926.583c-2.045,1.8-1.756,5.431-.161,7.395-1.311,1.508-.921,4.7.423,5.958,1.546,1.449,4.738,1.755,6.1-.025,1.981.653,5.2.91,6.4-1.121a.731.731,0,0,0,.1-.536,5.361,5.361,0,0,0,2.862-.452,6.314,6.314,0,0,0,1.945-1.217,5.945,5.945,0,0,0,.909-1.267,4.052,4.052,0,0,0,1.381.235c2.538-.006,4.455-2.138,5.308-4.428,2.275.518,5.329-1.235,5.765-3.5A4.354,4.354,0,0,0,224.3,168.957Zm2.054,5.473a3.786,3.786,0,0,1-3.336,1.933.694.694,0,0,0-.175-.194.8.8,0,0,0-.179-.372c-.149-.765-1.477-.682-1.575.238a5.515,5.515,0,0,1-3.511,4.609,2.3,2.3,0,0,1-1.34.047.852.852,0,0,0-.933-.568,4.2,4.2,0,0,1-.872-3.639c.239-.992-1.291-1.416-1.53-.422a5.607,5.607,0,0,0,1.293,5.205,4.294,4.294,0,0,1-1.041,1.252,4.878,4.878,0,0,1-2.3.909c-.065.008-.2,0-.325,0a.729.729,0,0,0-.548-.223.819.819,0,0,0-.271.048c-1.2-.683-2.148-1.455-2.239-2.991-.066-1.112-.029-3.477,1.234-3.975.939-.37.53-1.905-.422-1.53-2.1.829-2.4,3.17-2.4,5.213a4.876,4.876,0,0,0,2.766,4.5.769.769,0,0,0-.309.3c-.817,1.382-3.675.736-4.84.314a.812.812,0,0,0-.2-.045.656.656,0,0,0-.942.16.771.771,0,0,0-.228.4c-.789,1.111-2.834.84-3.79,0a2.361,2.361,0,0,1-.7-1.786c-.01-.458-.048-1.792.421-2.1a.82.82,0,0,0,.232-.227.833.833,0,0,0-.017-1.357.808.808,0,0,0-.154-.241c-1.192-1.27-1.634-4.657.294-5.518,1.837-.82,3.948.505,5.057,1.887.64.8,1.756-.333,1.122-1.122a7.37,7.37,0,0,0-5.136-2.637,2.509,2.509,0,0,1,3.2-2.443c1.387.371,2.12,1.773,2.8,2.966a.794.794,0,0,0,1.37-.8,8.89,8.89,0,0,0-2.56-3.131.871.871,0,0,0-.107-.408.783.783,0,0,0,.066-.166c.454-1.935,2.388-2.489,4.108-1.974a.81.81,0,0,0,.195.028.768.768,0,0,0,.279.083,7.4,7.4,0,0,0,.765,3.926c.4.936,1.767.129,1.371-.8-.569-1.332-1.2-3.072.257-4.076a3.06,3.06,0,0,1,3.76.1.845.845,0,0,0,.275.151.7.7,0,0,0,.353.3.825.825,0,0,0,.051.107l-.018.016a5.952,5.952,0,0,0-1.136,4.875c.509,1.89,2.4,2.606,4.1,3.075a.794.794,0,0,0,.422-1.53c-1.051-.29-2.223-.559-2.78-1.582a4.018,4.018,0,0,1,.378-3.517c.725-1.045,2.556-1.175,3.666-.824a3.594,3.594,0,0,1,2.412,2.81.711.711,0,0,0,.237.41.757.757,0,0,0,1.2.477.762.762,0,0,0,.12-.028.441.441,0,0,0,.061.014C226.094,170.766,226.934,172.825,226.358,174.43Z" transform="translate(-103.094 -92.766)" fill="#b66d93" stroke="#b66d93" stroke-miterlimit="10" stroke-width="1"/>
    <g id="zoom" transform="translate(84.066 59.352)">
      <circle id="Ellipse_67" data-name="Ellipse 67" cx="23.285" cy="23.285" r="23.285" transform="translate(0 0)" fill="none" stroke="#000" stroke-miterlimit="10" stroke-width="5"/>
      <g id="Group_235" data-name="Group 235" transform="translate(38.089 40.502)">
        <circle id="Ellipse_68" data-name="Ellipse 68" cx="3.184" cy="3.184" r="3.184" transform="translate(27.613 33.87) rotate(-13.282)" fill="none"/>
        <rect id="Rectangle_1535" data-name="Rectangle 1535" width="8.222" height="2.383" transform="matrix(0.783, -0.622, 0.622, 0.783, 0, 5.111)"/>
        <path id="Path_671" data-name="Path 671" d="M291.114,254l-27.781-27.922-6.146,5.344,22.269,31.937A7.52,7.52,0,1,0,291.114,254Zm-5.134,8.686a3.184,3.184,0,1,1,3.184-3.184A3.184,3.184,0,0,1,285.98,262.687Z" transform="translate(-254.536 -223.265)"/>
      </g>
    </g>
    <text id="D" transform="translate(138 97)" font-size="45" font-family="TwCenMT-Regular, Tw Cen MT" letter-spacing="0.12em"><tspan x="0" y="0">D</tspan></text>
  </g>
</svg>
