<svg id="book_icon" data-name="book icon" xmlns="http://www.w3.org/2000/svg" width="81.388" height="75.155" viewBox="0 0 81.388 75.155">
  <g id="Icon_ionic-ios-book" data-name="Icon ionic-ios-book" transform="translate(0)" opacity="0.8">
    <path id="Path_854" data-name="Path 854" d="M22.545,4.507c10.589,0,19.574,5.461,19.574,16.05v3.132h0v55.57a.385.385,0,0,1-.744.137v-.02c-2.016-6.694-7.477-13.232-16.109-13.8-6.694-.431-13.095,2.525-18.223,7.262a2.11,2.11,0,0,1-1.292.568H4.87c-.724,0-1.488-.528-1.488-1.194V15.488C3.362,9.2,11.955,4.507,22.545,4.507Z" transform="translate(-3.382 -4.487)" fill="#fe5f00"/>
    <path id="Path_855" data-name="Path 855" d="M38.277,4.5C27.687,4.5,18.7,9.961,18.7,20.55v3.132h0v55.57a.385.385,0,0,0,.744.137v-.02c2.016-6.694,7.712-13.291,16.109-13.8,6.44-.391,12.508,2.153,18.223,7.262a2.226,2.226,0,0,0,1.292.568h.881c.724,0,1.488-.528,1.488-1.194V15.461C57.459,9.2,48.866,4.5,38.277,4.5Z" transform="translate(23.948 -4.5)" fill="#fe5f00"/>
  </g>
  <g id="shadow" transform="translate(16.909)" opacity="0.8">
    <path id="Path_854-2" data-name="Path 854" d="M14.82,4.507c10.589,0,19.574,5.461,19.574,16.05v3.132h0C34.394,79.69,4.231,4.507,14.82,4.507Z" transform="translate(-12.566 -4.487)" fill="#fe5f00"/>
    <path id="Path_855-2" data-name="Path 855" d="M38.277,4.5C27.687,4.5,18.7,9.961,18.7,20.55v3.132h0C18.7,79.683,48.866,4.5,38.277,4.5Z" transform="translate(7.039 -4.5)" fill="#fe5f00"/>
  </g>
</svg>
