<svg id="school_logo" data-name="school logo" xmlns="http://www.w3.org/2000/svg" width="98.405" height="78.724" viewBox="0 0 98.405 78.724">
  <path id="Icon_awesome-school" data-name="Icon awesome-school" d="M0,34.442V76.264a2.459,2.459,0,0,0,2.46,2.46h12.3v-49.2H4.92A4.921,4.921,0,0,0,0,34.442Zm55.353-7.38h-3.69v-6.15a1.23,1.23,0,0,0-1.23-1.23h-2.46a1.23,1.23,0,0,0-1.23,1.23v9.841a1.23,1.23,0,0,0,1.23,1.23h7.38a1.23,1.23,0,0,0,1.23-1.23v-2.46A1.23,1.23,0,0,0,55.353,27.062Zm21.18-9.834L51.932.826a4.923,4.923,0,0,0-5.458,0l-24.6,16.4a4.921,4.921,0,0,0-2.191,4.093v57.4H39.362V56.583a2.459,2.459,0,0,1,2.46-2.46H56.583a2.459,2.459,0,0,1,2.46,2.46V78.724H78.724v-57.4a4.921,4.921,0,0,0-2.191-4.095ZM49.2,39.362a12.3,12.3,0,1,1,12.3-12.3A12.3,12.3,0,0,1,49.2,39.362Zm44.282-9.841H83.645v49.2h12.3a2.459,2.459,0,0,0,2.46-2.46V34.442A4.921,4.921,0,0,0,93.485,29.522Z" transform="translate(0 0)" fill="#fe5f00" opacity="0.8"/>
  <path id="Icon_awesome-school-2" data-name="Icon awesome-school" d="M12.513,78.364v-49.2H2.672ZM53.105,26.7h-3.69v-6.15a1.23,1.23,0,0,0-1.23-1.23h-2.46a1.23,1.23,0,0,0-1.23,1.23v9.841a1.23,1.23,0,0,0,1.23,1.23h7.38a1.23,1.23,0,0,0,1.23-1.23v-2.46A1.23,1.23,0,0,0,53.105,26.7Zm21.18-9.834L49.684.465C48.031-.636,61.522,23.3,62.472,26.7l14,51.663v-57.4a4.921,4.921,0,0,0-2.191-4.095Zm-8.869,4.095Zm25.821,8.2H81.4c13.66,49.2,14.761,48.1,14.761,46.743V34.082A4.921,4.921,0,0,0,91.237,29.161Z" transform="translate(2.248 0.36)" fill="#fe5f00" opacity="0.8"/>
</svg>
