<svg xmlns="http://www.w3.org/2000/svg" width="91.93" height="73.544" viewBox="0 0 91.93 73.544">
  <path id="Icon_awesome-chalkboard-teacher" data-name="Icon awesome-chalkboard-teacher" d="M29.877,50.562a3.286,3.286,0,0,0-1.014.157,18.948,18.948,0,0,1-5.881.993,18.964,18.964,0,0,1-5.882-.993,3.277,3.277,0,0,0-1.013-.157A16.089,16.089,0,0,0,0,66.739a6.877,6.877,0,0,0,6.895,6.806H39.07a6.877,6.877,0,0,0,6.895-6.806A16.089,16.089,0,0,0,29.877,50.562Zm-6.895-4.6a13.79,13.79,0,1,0-13.79-13.79A13.789,13.789,0,0,0,22.983,45.965ZM85.036,0H29.877a7.02,7.02,0,0,0-6.895,7.123V13.79a18.177,18.177,0,0,1,9.193,2.557V9.193H82.737V50.562H73.544V41.369H55.158v9.193H44.207a18.307,18.307,0,0,1,5.7,9.193H85.036a7.02,7.02,0,0,0,6.895-7.123V7.123A7.02,7.02,0,0,0,85.036,0Z" transform="translate(0 0)" fill="#fe5f00" opacity="0.8"/>
</svg>
