<svg xmlns="http://www.w3.org/2000/svg" width="45.012" height="36.009" viewBox="0 0 45.012 36.009">
  <path id="Icon_awesome-crown" data-name="Icon awesome-crown" d="M37.135,31.508H7.877a1.129,1.129,0,0,0-1.125,1.125v2.251a1.129,1.129,0,0,0,1.125,1.125H37.135a1.129,1.129,0,0,0,1.125-1.125V32.633A1.129,1.129,0,0,0,37.135,31.508ZM41.636,9a3.377,3.377,0,0,0-3.376,3.376,3.307,3.307,0,0,0,.309,1.393l-5.092,3.052a2.248,2.248,0,0,1-3.109-.816L24.637,5.978a3.376,3.376,0,1,0-4.262,0L14.643,16.007a2.249,2.249,0,0,1-3.109.816L6.449,13.771a3.375,3.375,0,1,0-3.073,1.983,3.447,3.447,0,0,0,.542-.056L9,29.257H36.009L41.094,15.7a3.447,3.447,0,0,0,.542.056,3.376,3.376,0,1,0,0-6.752Z" fill="#065fd4" opacity="0.65"/>
</svg>
