<svg xmlns="http://www.w3.org/2000/svg" width="24.165" height="24.165" viewBox="0 0 24.165 24.165">
  <path id="Icon_awesome-link" data-name="Icon awesome-link" d="M15.415,8.75a7.17,7.17,0,0,1,.017,10.128l-.017.017-3.172,3.172A7.174,7.174,0,1,1,2.1,11.922L3.849,10.17a.755.755,0,0,1,1.288.5,8.7,8.7,0,0,0,.457,2.488.76.76,0,0,1-.179.784l-.618.618A3.4,3.4,0,1,0,9.574,19.4l3.172-3.171a3.4,3.4,0,0,0,0-4.806,3.536,3.536,0,0,0-.488-.4.757.757,0,0,1-.328-.595,1.88,1.88,0,0,1,.552-1.407l.994-.994a.758.758,0,0,1,.972-.082,7.2,7.2,0,0,1,.969.812ZM22.067,2.1a7.182,7.182,0,0,0-10.146,0L8.75,5.27l-.017.017a7.175,7.175,0,0,0,.986,10.94.758.758,0,0,0,.972-.082l.994-.994a1.88,1.88,0,0,0,.552-1.407.757.757,0,0,0-.328-.595,3.536,3.536,0,0,1-.488-.4,3.4,3.4,0,0,1,0-4.806l3.172-3.171A3.4,3.4,0,1,1,19.366,9.6l-.618.618a.76.76,0,0,0-.179.784,8.7,8.7,0,0,1,.457,2.488.755.755,0,0,0,1.288.5l1.751-1.751a7.182,7.182,0,0,0,0-10.146Z" fill="#3f3e3e"/>
</svg>
