<svg xmlns="http://www.w3.org/2000/svg" width="15.973" height="21.297" viewBox="0 0 15.973 21.297">
  <path id="Icon_awesome-clipboard-list" data-name="Icon awesome-clipboard-list" d="M13.976,2.662H10.648a2.662,2.662,0,0,0-5.324,0H2a2,2,0,0,0-2,2V19.3a2,2,0,0,0,2,2H13.976a2,2,0,0,0,2-2V4.659A2,2,0,0,0,13.976,2.662ZM3.993,17.636a1,1,0,1,1,1-1A1,1,0,0,1,3.993,17.636Zm0-3.993a1,1,0,1,1,1-1A1,1,0,0,1,3.993,13.643Zm0-3.993a1,1,0,1,1,1-1A1,1,0,0,1,3.993,9.65ZM7.986,1.664a1,1,0,1,1-1,1A1,1,0,0,1,7.986,1.664Zm5.324,15.307a.334.334,0,0,1-.333.333H6.988a.334.334,0,0,1-.333-.333v-.666a.334.334,0,0,1,.333-.333h5.99a.334.334,0,0,1,.333.333Zm0-3.993a.334.334,0,0,1-.333.333H6.988a.334.334,0,0,1-.333-.333v-.666a.334.334,0,0,1,.333-.333h5.99a.334.334,0,0,1,.333.333Zm0-3.993a.334.334,0,0,1-.333.333H6.988a.334.334,0,0,1-.333-.333V8.319a.334.334,0,0,1,.333-.333h5.99a.334.334,0,0,1,.333.333Z" fill="#fff"/>
</svg>
