<svg xmlns="http://www.w3.org/2000/svg" width="31.854" height="27.873" viewBox="0 0 31.854 27.873">
  <path id="Icon_awesome-list-ol" data-name="Icon awesome-list-ol" d="M3.843,25.208l1.089-1.254a1.239,1.239,0,0,0,.315-.883v-.206a.631.631,0,0,0-.706-.706H1a.5.5,0,0,0-.5.5v1a.5.5,0,0,0,.5.5h1.42a9.793,9.793,0,0,0-.684.766l-.349.436a.827.827,0,0,0-.174.926l.065.12a.757.757,0,0,0,.762.49H2.33c.643,0,.992.152.992.566,0,.294-.261.511-.893.511a2.584,2.584,0,0,1-.962-.194c-.4-.241-.73-.218-.971.194l-.348.579a.67.67,0,0,0,.164.992,4.467,4.467,0,0,0,2.3.587,2.727,2.727,0,0,0,3.017-2.745A2.249,2.249,0,0,0,3.843,25.208ZM30.859,14.2H10.95a1,1,0,0,0-1,1v1.991a1,1,0,0,0,1,1H30.859a1,1,0,0,0,1-1V15.191A1,1,0,0,0,30.859,14.2Zm0-9.954H10.95a1,1,0,0,0-1,1V7.227a1,1,0,0,0,1,1H30.859a1,1,0,0,0,1-1V5.236A1,1,0,0,0,30.859,4.241Zm0,19.909H10.95a1,1,0,0,0-1,1v1.991a1,1,0,0,0,1,1H30.859a1,1,0,0,0,1-1V25.145A1,1,0,0,0,30.859,24.15ZM1,10.214H4.977a.5.5,0,0,0,.5-.5v-1a.5.5,0,0,0-.5-.5h-1V2.748a.5.5,0,0,0-.5-.5H1.991a.5.5,0,0,0-.444.275l-.5,1a.5.5,0,0,0,.444.72h.5V8.223H1a.5.5,0,0,0-.5.5v1A.5.5,0,0,0,1,10.214ZM.752,20.168H4.977a.5.5,0,0,0,.5-.5v-1a.5.5,0,0,0-.5-.5H2.571c.2-.64,3.007-1.162,3.007-3.511A2.519,2.519,0,0,0,2.812,12.2,3.017,3.017,0,0,0,.294,13.371a.615.615,0,0,0,.174.956L1,14.755c.349.284.684.154,1-.152a.836.836,0,0,1,.589-.239.53.53,0,0,1,.577.544C3.173,15.7,0,16.268,0,19.209v.249A.681.681,0,0,0,.752,20.168Z" transform="translate(0 -2.25)" fill="#3f3e3e"/>
</svg>
