<svg xmlns="http://www.w3.org/2000/svg" width="17.244" height="22.993" viewBox="0 0 17.244 22.993">
  <path id="Icon_awesome-file-pdf" data-name="Icon awesome-file-pdf" d="M8.169,11.5a4.333,4.333,0,0,1-.09-2.106C8.456,9.395,8.42,11.052,8.169,11.5Zm-.076,2.12a20.722,20.722,0,0,1-1.275,2.816,16.536,16.536,0,0,1,2.825-.983A5.817,5.817,0,0,1,8.092,13.62Zm-4.226,5.6c0,.036.593-.243,1.567-1.805A6.207,6.207,0,0,0,3.867,19.225Zm7.271-12.04h6.107v14.73a1.075,1.075,0,0,1-1.078,1.078H1.078A1.075,1.075,0,0,1,0,21.915V1.078A1.075,1.075,0,0,1,1.078,0h8.982V6.107A1.081,1.081,0,0,0,11.137,7.185ZM10.778,14.9A4.507,4.507,0,0,1,8.86,12.484,6.455,6.455,0,0,0,9.139,9.6,1.125,1.125,0,0,0,6.992,9.3a7.467,7.467,0,0,0,.364,3.458,42.169,42.169,0,0,1-1.832,3.853s0,0-.009,0c-1.217.624-3.305,2-2.447,3.054a1.4,1.4,0,0,0,.966.449c.8,0,1.6-.808,2.744-2.775A25.6,25.6,0,0,1,10.324,16.3a6.806,6.806,0,0,0,2.874.876,1.162,1.162,0,0,0,.885-1.949C13.459,14.613,11.645,14.788,10.778,14.9ZM16.93,4.715l-4.4-4.4A1.077,1.077,0,0,0,11.766,0H11.5V5.748h5.748V5.474A1.074,1.074,0,0,0,16.93,4.715ZM13.6,16.18c.184-.121-.112-.534-1.922-.4C13.347,16.486,13.6,16.18,13.6,16.18Z" fill="#3f3e3e"/>
</svg>
