<svg xmlns="http://www.w3.org/2000/svg" width="22" height="19.25" viewBox="0 0 22 19.25">
  <path id="Icon_awesome-sort-amount-down" data-name="Icon awesome-sort-amount-down" d="M13.062,18.75h-2.75a.687.687,0,0,0-.688.688v1.375a.687.687,0,0,0,.688.688h2.75a.687.687,0,0,0,.688-.687V19.438A.687.687,0,0,0,13.062,18.75ZM7.562,16H5.5V2.938a.687.687,0,0,0-.687-.687H3.437a.688.688,0,0,0-.687.688V16H.687A.688.688,0,0,0,.2,17.173L3.64,21.3a.688.688,0,0,0,.972,0l3.438-4.125A.689.689,0,0,0,7.562,16Zm11-8.25h-8.25a.687.687,0,0,0-.688.688V9.813a.687.687,0,0,0,.688.688h8.25a.688.688,0,0,0,.688-.688V8.438A.688.688,0,0,0,18.562,7.75Zm-2.75,5.5h-5.5a.687.687,0,0,0-.688.688v1.375a.687.687,0,0,0,.688.687h5.5a.688.688,0,0,0,.687-.687V13.938A.688.688,0,0,0,15.812,13.25Zm5.5-11h-11a.687.687,0,0,0-.688.688V4.313A.687.687,0,0,0,10.312,5h11A.688.688,0,0,0,22,4.313V2.938A.688.688,0,0,0,21.312,2.25Z" transform="translate(0 -2.25)" fill="#3f3e3e"/>
</svg>
