<svg xmlns="http://www.w3.org/2000/svg" width="37.447" height="35.841" viewBox="0 0 37.447 35.841">
  <path id="Icon_awesome-star" data-name="Icon awesome-star" d="M18.156,1.246l-4.571,9.267L3.359,12A2.241,2.241,0,0,0,2.12,15.826l7.4,7.209L7.769,33.219a2.239,2.239,0,0,0,3.248,2.359l9.148-4.809,9.148,4.809a2.24,2.24,0,0,0,3.248-2.359l-1.75-10.184,7.4-7.209A2.241,2.241,0,0,0,36.97,12L26.744,10.513,22.174,1.246a2.242,2.242,0,0,0-4.018,0Z" transform="translate(-1.441 0.001)" fill="#065fd4" opacity="0.65"/>
</svg>
