<svg xmlns="http://www.w3.org/2000/svg" width="27.54" height="24.097" viewBox="0 0 27.54 24.097">
  <path id="Icon_metro-table" data-name="Icon metro-table" d="M2.571,3.856v24.1H30.11V3.856H2.571ZM12.9,19.347V14.183h6.885v5.164Zm6.885,1.721v5.164H12.9V21.068Zm0-13.77v5.164H12.9V7.3h6.885Zm-8.606,0v5.164H4.292V7.3h6.885ZM4.292,14.183h6.885v5.164H4.292V14.183Zm17.212,0h6.885v5.164H21.5V14.183Zm0-1.721V7.3h6.885v5.164ZM4.292,21.068h6.885v5.164H4.292V21.068ZM21.5,26.232V21.068h6.885v5.164Z" transform="translate(-2.57 -3.856)" fill="#3f3e3e"/>
</svg>
