<svg xmlns="http://www.w3.org/2000/svg" width="58.388" height="58.388" viewBox="0 0 58.388 58.388">
  <path id="Icon_awesome-user-circle" data-name="Icon awesome-user-circle" d="M29.194.563A29.194,29.194,0,1,0,58.388,29.756,29.189,29.189,0,0,0,29.194.563Zm0,11.3A10.359,10.359,0,1,1,18.835,22.222,10.359,10.359,0,0,1,29.194,11.863Zm0,40.495A22.558,22.558,0,0,1,11.948,44.33a13.125,13.125,0,0,1,11.6-7.039,2.88,2.88,0,0,1,.836.129,15.586,15.586,0,0,0,4.815.812,15.527,15.527,0,0,0,4.815-.812,2.88,2.88,0,0,1,.836-.129,13.125,13.125,0,0,1,11.6,7.039A22.558,22.558,0,0,1,29.194,52.358Z" transform="translate(0 -0.563)"/>
</svg>
