<svg xmlns="http://www.w3.org/2000/svg" width="89.374" height="89.374" viewBox="0 0 89.374 89.374">
  <path id="Icon_awesome-basketball-ball" data-name="Icon awesome-basketball-ball" d="M38.254.977a44.422,44.422,0,0,0-22.019,9.694L30.182,24.618A40.133,40.133,0,0,0,38.254.977Zm6.433,38.146L73.139,10.671A44.537,44.537,0,0,0,46.921.563C46.705,12.077,43.047,22.6,36.344,30.78ZM10.109,16.8A44.422,44.422,0,0,0,.414,38.817a40.09,40.09,0,0,0,23.641-8.073ZM59.156,53.592c8.163-6.685,18.686-10.343,30.218-10.577A44.537,44.537,0,0,0,79.266,16.8L50.814,45.25l8.343,8.343ZM44.687,51.376,16.235,79.828A44.654,44.654,0,0,0,42.453,89.937C42.687,78.4,46.345,67.881,53.03,59.719ZM79.266,73.7A44.422,44.422,0,0,0,88.96,51.682a40.292,40.292,0,0,0-23.641,8.073ZM30.218,36.907C22.037,43.61,11.514,47.286,0,47.484A44.537,44.537,0,0,0,10.109,73.7L38.561,45.25Zm20.9,52.615a44.422,44.422,0,0,0,22.019-9.694L59.192,65.881A40.335,40.335,0,0,0,51.12,89.522Z" transform="translate(0 -0.563)" fill="#fe5f00"/>
</svg>
