<svg xmlns="http://www.w3.org/2000/svg" width="91.802" height="91.8" viewBox="0 0 91.802 91.8">
  <path id="Icon_awesome-book-reader" data-name="Icon awesome-book-reader" d="M63.113,17.213A17.213,17.213,0,1,0,45.9,34.425,17.212,17.212,0,0,0,63.113,17.213ZM41.882,43.229c-10.638-6.512-27.868-8.3-36.539-8.795A4.961,4.961,0,0,0,0,39.291V79.239a4.931,4.931,0,0,0,4.75,4.85C12.578,84.5,28.415,86,39.361,91.517a2.5,2.5,0,0,0,3.672-2.128V45.283a2.386,2.386,0,0,0-1.151-2.055Zm44.575-8.795c-8.669.491-25.9,2.282-36.537,8.795a2.43,2.43,0,0,0-1.149,2.085V89.383a2.5,2.5,0,0,0,3.683,2.134c10.944-5.508,26.773-7.012,34.6-7.423a4.934,4.934,0,0,0,4.75-4.852V39.291A4.963,4.963,0,0,0,86.457,34.434Z" fill="#fe5f00"/>
</svg>
