<svg xmlns="http://www.w3.org/2000/svg" width="88.674" height="88.672" viewBox="0 0 88.674 88.672">
  <path id="Icon_awesome-paint-brush" data-name="Icon awesome-paint-brush" d="M28.927,53.574c-6.948.447-13.254,3.093-16.832,12.522a2.643,2.643,0,0,1-2.527,1.728c-1.924,0-7.873-4.792-9.569-5.949,0,14.262,6.571,26.8,22.17,26.8,13.138,0,22.168-7.58,22.168-20.815a15.005,15.005,0,0,0-.168-1.581l-15.242-12.7ZM79.3,0a10.576,10.576,0,0,0-6.964,2.849c-35.4,31.624-39.085,32.367-39.085,41.676a16.033,16.033,0,0,0,1.512,6.7l11.053,9.21a15.936,15.936,0,0,0,3.878.525c10.757,0,16.992-7.875,36.57-44.416a17.82,17.82,0,0,0,2.407-7.965C88.673,3.575,84.171,0,79.3,0Z" transform="translate(0.001)" fill="#fe5f00"/>
</svg>
