<svg xmlns="http://www.w3.org/2000/svg" width="45.788" height="124.438" viewBox="0 0 45.788 124.438">
  <g id="Group_695" data-name="Group 695" transform="translate(-1338.042 -1155.792)">
    <circle id="Ellipse_310" data-name="Ellipse 310" cx="9.498" cy="9.498" r="9.498" transform="matrix(0.23, -0.973, 0.973, 0.23, 1343.437, 1185.476)" fill="#fe5f00"/>
    <path id="Path_1017" data-name="Path 1017" d="M1466.131,1170.177l-25.853-5.7a4.393,4.393,0,0,1-3.344-5.236h0a4.392,4.392,0,0,1,5.235-3.343l24.156,5.327Z" transform="translate(-85.271 0)" fill="#fe5f00"/>
    <path id="Path_1018" data-name="Path 1018" d="M1543.616,1803.4l2.948,30.347c.27,2.781-1.468,5.225-3.883,5.46h0c-2.415.234-4.591-1.83-4.861-4.611l-4.765-30.326Z" transform="translate(-168.33 -559)" fill="#fe5f00"/>
    <path id="Path_1019" data-name="Path 1019" d="M1425.979,1799.346l-.97,28.811a4.6,4.6,0,0,1-4.551,4.633h0a4.6,4.6,0,0,1-4.229-4.928l-1.437-31.005Z" transform="translate(-66.249 -553.348)" fill="#fe5f00"/>
    <path id="Path_1020" data-name="Path 1020" d="M1354.179,1472.064a2.742,2.742,0,0,1-4.177-.416l-11.35-16.6a4.159,4.159,0,0,1,1.437-5.681h0a4.159,4.159,0,0,1,5.815.722l11.689,17.743Z" transform="translate(0 -252.673)" fill="#fe5f00"/>
    <path id="Path_1021" data-name="Path 1021" d="M1598.48,1223.6h-7.361v-26.353l8.384-1.761Z" transform="translate(-218.449 -34.261)" fill="#fe5f00"/>
    <path id="Path_1022" data-name="Path 1022" d="M1476.031,1371.169l-25.88,2.62-2.559-6.464a15.367,15.367,0,0,1,8.632-19.944l16.72-6.055Z" transform="translate(-93.626 -160.148)" fill="#fe5f00"/>
    <path id="Path_1023" data-name="Path 1023" d="M1446.512,1500.616a0,0,0,0,0,0,0v-19.843l10.764.4-3.72,15.354C1453.553,1499.322,1449.308,1500.615,1446.512,1500.616Z" transform="translate(-93.626 -280.516)" fill="#fe5f00"/>
    <path id="Path_1024" data-name="Path 1024" d="M1440.406,1591.834l20.182,2.909,1.424,22.5-33.395-8.785Z" transform="translate(-78.183 -376.379)" fill="#fe5f00"/>
    <path id="Path_1025" data-name="Path 1025" d="M1423.344,1708.348l-8.326,11.123a1.133,1.133,0,0,0,.561,1.757l8.725,2.795a1.132,1.132,0,0,0,1.308-.482l7.023-11.332a1.132,1.132,0,0,0-.59-1.666l-7.422-2.586A1.133,1.133,0,0,0,1423.344,1708.348Z" transform="translate(-66.248 -476.558)" fill="#fe5f00"/>
    <path id="Path_1026" data-name="Path 1026" d="M1537.786,1728.921l-4.538,9.885a3.708,3.708,0,0,0,2.91,5.226l6.376.8,5.224-12.436Z" transform="translate(-168.202 -494.708)" fill="#fe5f00"/>
  </g>
</svg>
