<svg xmlns="http://www.w3.org/2000/svg" width="91.516" height="106.578" viewBox="0 0 91.516 106.578">
  <g id="Group_694" data-name="Group 694" transform="translate(-745.964 -608.659)">
    <rect id="Rectangle_1782" data-name="Rectangle 1782" width="12.416" height="47.497" rx="4.575" transform="translate(745.964 667.74)" fill="#fe5f00"/>
    <rect id="Rectangle_1783" data-name="Rectangle 1783" width="12.416" height="47.497" rx="4.575" transform="translate(825.064 667.74)" fill="#fe5f00"/>
    <g id="Group_691" data-name="Group 691" transform="translate(750.814 608.659)">
      <path id="Path_1016" data-name="Path 1016" d="M759.209,678.6h-2.714V641.956c0-13.3,9.4-26.147,22.863-31.244,7.64-2.894,15.229-2.688,21.637.37a66.79,66.79,0,0,1,12.257-1.017c7.781,0,13.563,2.058,17.676,6.291,8.693,8.943,8.213,25.755,7.657,45.222-.136,4.774-.277,9.712-.277,14.644H835.6c0-4.973.142-9.929.279-14.721.537-18.852,1-35.133-6.89-43.254-3.577-3.679-8.722-5.468-15.731-5.468a69.435,69.435,0,0,0-8.538.493,26.416,26.416,0,0,1,4.467,4.037c5.8,6.56,7.64,14.628,5.048,22.138-2.473,7.163-8.528,12.614-15.429,13.885-6.238,1.148-12.217-1.257-16.832-6.773-9.234-11.038-6.556-22.614-.16-28.7a15.189,15.189,0,0,1,11.458-4.518,31.468,31.468,0,0,1,3.154-1.147,25.392,25.392,0,0,0-16.1,1.055c-12.43,4.707-21.11,16.511-21.11,28.707Zm27.31-60.877a14.629,14.629,0,0,0-2.839,2.106c-5.692,5.416-7.786,15.243.37,24.992,3.961,4.735,9.025,6.8,14.26,5.846,5.954-1.1,11.2-5.847,13.354-12.1,1.331-3.854,2.513-11.507-4.515-19.456a23.443,23.443,0,0,0-6.454-5.172q-1.414.3-2.714.665a13.657,13.657,0,0,1,3.3,2.273A18.689,18.689,0,0,1,806.811,636c-1.6,5.609-5.615,9.945-9.99,10.789-3.425.664-6.725-.807-9.3-4.135-5.447-7.024-6.946-14.794-4.012-20.783A15.294,15.294,0,0,1,786.519,617.72Zm7.238-1.589c-3.737,1.7-6.392,4.035-7.814,6.935-2.468,5.037-1.077,11.739,3.719,17.927,1.948,2.511,4.246,3.594,6.643,3.132,3.4-.654,6.569-4.219,7.895-8.869a15.85,15.85,0,0,0-4.759-16.391A10.155,10.155,0,0,0,793.757,616.13Z" transform="translate(-756.495 -608.659)" fill="#fe5f00"/>
    </g>
  </g>
</svg>
