<svg xmlns="http://www.w3.org/2000/svg" width="80.8" height="105.006" viewBox="0 0 80.8 105.006">
  <path id="Icon_ionic-ios-musical-notes" data-name="Icon ionic-ios-musical-notes" d="M85.076,3.425c-1.186.227-50.989,9.895-52.049,10.1a2.238,2.238,0,0,0-2.045,2.019V76.147a6.963,6.963,0,0,1-.606,2.953,6.726,6.726,0,0,1-4.064,3.206c-.833.278-1.969.53-3.307.833C16.923,84.5,6.75,86.825,6.75,96.215c0,7.85,5.654,11.384,10.526,11.99a12.309,12.309,0,0,0,1.792.177h0c1.691,0,9.087-.833,12.924-3.332,2.777-1.817,6.083-5.4,6.083-12.066V39.344a2,2,0,0,1,1.615-1.969l38.368-7.749A2.018,2.018,0,0,1,80.482,31.6V64.637a7.236,7.236,0,0,1-.631,3.382,6.709,6.709,0,0,1-4.089,3.206c-.833.278-2.221.53-3.559.833-6.083,1.363-16.256,3.66-16.256,13.05,0,8.507,6.411,11.914,10.551,12.192a20.861,20.861,0,0,0,4.9-.227,28.94,28.94,0,0,0,9.213-3.281A13.305,13.305,0,0,0,87.55,81.625V5.369A2,2,0,0,0,85.076,3.425Z" transform="translate(-6.75 -3.375)" fill="#fe5f00"/>
</svg>
