<svg xmlns="http://www.w3.org/2000/svg" width="109.052" height="96.935" viewBox="0 0 109.052 96.935">
  <path id="Icon_awesome-puzzle-piece" data-name="Icon awesome-puzzle-piece" d="M98.344,54.649c-7.861,0-11.265,5.981-15.536,5.981-11.355,0-1.019-33.368-1.019-33.368s-37.163,15.146-37.163-.624c0-6.783,6.87-8.756,6.87-16.279C51.5,3.638,46.174,0,39.861,0,33.3,0,27.3,3.577,27.3,10.668c0,7.831,6,11.223,6,15.477C33.3,39.327,0,31.572,0,31.572V94.663s33.82,7.771,33.82-5.426c0-4.255-7.573-7.593-7.573-15.425,0-7.091,5.538-10.668,12.037-10.668,6.375,0,11.7,3.638,11.7,10.359,0,7.523-6.87,9.5-6.87,16.279,0,11.512,24.551,4.871,34.312,4.871,0,0-6.574-22.738,4.89-22.738,6.809,0,8.789,6.845,16.34,6.845,6.747,0,10.4-5.3,10.4-11.654,0-6.475-3.59-12.456-10.708-12.456Z" fill="#fe5f00"/>
</svg>
