<svg xmlns="http://www.w3.org/2000/svg" width="21.38" height="17.104" viewBox="0 0 21.38 17.104">
  <path id="Icon_awesome-crown" data-name="Icon awesome-crown" d="M17.638,14.966H3.741a.536.536,0,0,0-.534.534v1.069a.536.536,0,0,0,.534.534h13.9a.536.536,0,0,0,.534-.534V15.5A.536.536,0,0,0,17.638,14.966Zm2.138-10.69a1.6,1.6,0,0,0-1.6,1.6,1.571,1.571,0,0,0,.147.661L15.9,7.991A1.068,1.068,0,0,1,14.425,7.6L11.7,2.839a1.6,1.6,0,1,0-2.024,0L6.955,7.6a1.068,1.068,0,0,1-1.477.388L3.063,6.541a1.6,1.6,0,1,0-1.46.942,1.637,1.637,0,0,0,.257-.027L4.276,13.9H17.1l2.415-6.441a1.637,1.637,0,0,0,.257.027,1.6,1.6,0,0,0,0-3.207Z" fill="#6a1f74" opacity="0.65"/>
</svg>
