<svg xmlns="http://www.w3.org/2000/svg" width="42.351" height="48.401" viewBox="0 0 42.351 48.401">
  <defs>
    <style>
      .cls-1 {
        opacity: 0.4;
      }
    </style>
  </defs>
  <path id="Icon_awesome-book" data-name="Icon awesome-book" class="cls-1" d="M42.351,34.032V2.269A2.263,2.263,0,0,0,40.082,0H9.075A9.077,9.077,0,0,0,0,9.075v30.25A9.077,9.077,0,0,0,9.075,48.4H40.082a2.263,2.263,0,0,0,2.269-2.269V44.619a2.286,2.286,0,0,0-.841-1.768,21.081,21.081,0,0,1,0-7.062A2.253,2.253,0,0,0,42.351,34.032ZM12.1,12.667a.569.569,0,0,1,.567-.567H32.708a.569.569,0,0,1,.567.567v1.891a.569.569,0,0,1-.567.567H12.667a.569.569,0,0,1-.567-.567Zm0,6.05a.569.569,0,0,1,.567-.567H32.708a.569.569,0,0,1,.567.567v1.891a.569.569,0,0,1-.567.567H12.667a.569.569,0,0,1-.567-.567ZM36.055,42.351H9.075a3.025,3.025,0,1,1,0-6.05h26.98A34.032,34.032,0,0,0,36.055,42.351Z"/>
</svg>
