<svg xmlns="http://www.w3.org/2000/svg" width="74.402" height="56.133" viewBox="0 0 74.402 56.133">
  <g id="Group_388" data-name="Group 388" transform="translate(1.379 0.763)">
    <path id="Icon_map-surfing" data-name="Icon map-surfing" d="M9.614,38.707c14.79,6.253,26.024,9.9,41.847,14.912a.592.592,0,0,0,.672-.514.626.626,0,0,0-.5-.7A458.075,458.075,0,0,1,2.682,33.757a.893.893,0,0,0-1.172.478.852.852,0,0,0,.461,1.14c1.11.5,2.207.989,3.267,1.453L1.722,39.521a1.239,1.239,0,0,0,.362,1.741,1.378,1.378,0,0,0,1.484-.013ZM50.437,22.924,38.924,12.3l.255.025A4.245,4.245,0,1,0,35.7,10.486L27.9,7.688,23.681,1.56a2.012,2.012,0,0,0-3.637.964,2.091,2.091,0,0,0,.287,1.291l4.3,6.265a2.092,2.092,0,0,0,.748.6l4.987,1.967-8.188,4.21a4.458,4.458,0,0,0-2.181,3.146l.037,7.531-7.574,3.432a2.65,2.65,0,0,0-1.5,2.282,2.619,2.619,0,0,0,2.506,2.732,2.514,2.514,0,0,0,1.26-.265L24,31.51a2.6,2.6,0,0,0,1.322-1.768L25.3,25.056l6.432,5.79-1.185,9.86-.012.188a2.618,2.618,0,0,0,5.211.464l1.384-11.253.012-.151a2.638,2.638,0,0,0-.81-2l-5.958-5.326,8.977-4.436,8.329,7.707a2.062,2.062,0,0,0,1.434.589,2.026,2.026,0,0,0,2.008-2.042,2.074,2.074,0,0,0-.691-1.517Z" transform="translate(20.883 1.746)" fill="#6a1f74"/>
    <path id="Path_919" data-name="Path 919" d="M-7468.245,1895.3s-44.21,12.359-61.316-1.055c11.4-.452,27.605-1.959,23.4-17.483,10.6,3.466,33.908,15.223,33.908,15.223Z" transform="translate(7529.561 -1876.764)" fill="#6a1f74" stroke="#6a1f74" stroke-width="1"/>
  </g>
</svg>
