<svg xmlns="http://www.w3.org/2000/svg" width="74.401" height="56.133" viewBox="0 0 74.401 56.133">
  <g id="Group_389" data-name="Group 389" transform="translate(0 0.763)">
    <path id="Icon_map-surfing" data-name="Icon map-surfing" d="M43.966,38.707c-14.79,6.253-26.024,9.9-41.847,14.912a.592.592,0,0,1-.672-.514.626.626,0,0,1,.5-.7A458.074,458.074,0,0,0,50.9,33.757a.893.893,0,0,1,1.172.478.852.852,0,0,1-.461,1.14c-1.11.5-2.207.989-3.267,1.453l3.516,2.694a1.239,1.239,0,0,1-.362,1.741,1.378,1.378,0,0,1-1.484-.013ZM3.143,22.924,14.655,12.3l-.255.025a4.245,4.245,0,1,1,3.477-1.836l7.806-2.8L29.9,1.56a2.012,2.012,0,0,1,3.637.964,2.091,2.091,0,0,1-.287,1.291l-4.3,6.265a2.092,2.092,0,0,1-.748.6L23.216,12.65,31.4,16.86a4.458,4.458,0,0,1,2.181,3.146l-.037,7.531,7.574,3.432a2.65,2.65,0,0,1,1.5,2.282,2.619,2.619,0,0,1-2.506,2.732,2.514,2.514,0,0,1-1.26-.265L29.584,31.51a2.6,2.6,0,0,1-1.322-1.768l.012-4.687-6.432,5.79,1.185,9.86.012.188a2.618,2.618,0,0,1-5.211.464L16.444,30.105l-.012-.151a2.638,2.638,0,0,1,.81-2L23.2,22.624l-8.977-4.436L5.894,25.895a2.062,2.062,0,0,1-1.434.589,2.026,2.026,0,0,1-2.008-2.042,2.074,2.074,0,0,1,.691-1.517Z" transform="translate(-1.44 1.746)" fill="#fe5f00"/>
    <path id="Path_919" data-name="Path 919" d="M-7529.561,1895.3s44.211,12.359,61.316-1.055c-11.4-.452-27.606-1.959-23.4-17.483-10.6,3.466-33.907,15.223-33.907,15.223Z" transform="translate(7541.268 -1876.764)" fill="#fe5f00" stroke="#fe5f00" stroke-width="1"/>
  </g>
</svg>
