<svg id="Icon_ionic-md-chatbubbles" data-name="Icon ionic-md-chatbubbles" xmlns="http://www.w3.org/2000/svg" width="22.365" height="22.365" viewBox="0 0 22.365 22.365">
  <path id="Path_913" data-name="Path 913" d="M7.934,22.432a2.806,2.806,0,0,1-2.408-2.408V11.25H5.009a1.641,1.641,0,0,0-1.634,1.634V27.593L6.52,24.475H18.084a1.66,1.66,0,0,0,1.634-1.661v-.382Z" transform="translate(-3.375 -5.229)"/>
  <path id="Path_914" data-name="Path 914" d="M24.972,3.375H9.962A1.881,1.881,0,0,0,8.086,5.251V17.407a1.886,1.886,0,0,0,1.876,1.882H22.768l4.08,2.849V5.251A1.881,1.881,0,0,0,24.972,3.375Z" transform="translate(-4.484 -3.375)"/>
</svg>
