<svg xmlns="http://www.w3.org/2000/svg" width="22.406" height="22.406" viewBox="0 0 22.406 22.406">
  <path id="Icon_awesome-check-circle" data-name="Icon awesome-check-circle" d="M22.968,11.765a11.2,11.2,0,1,1-11.2-11.2A11.2,11.2,0,0,1,22.968,11.765ZM10.47,17.7l8.312-8.312a.723.723,0,0,0,0-1.022L17.759,7.341a.723.723,0,0,0-1.022,0L9.958,14.12,6.794,10.955a.723.723,0,0,0-1.022,0L4.749,11.977a.723.723,0,0,0,0,1.022l4.7,4.7a.723.723,0,0,0,1.022,0Z" transform="translate(-0.563 -0.563)" fill="#6a1f74"/>
</svg>
