<svg xmlns="http://www.w3.org/2000/svg" width="39.25" height="31.4" viewBox="0 0 39.25 31.4">
  <defs>
    <style>
      .cls-1 {
        fill: #fe5f00;
        opacity: 0.65;
      }
    </style>
  </defs>
  <path id="Icon_awesome-crown" data-name="Icon awesome-crown" class="cls-1" d="M32.381,27.475H6.869a.984.984,0,0,0-.981.981v1.963a.984.984,0,0,0,.981.981H32.381a.984.984,0,0,0,.981-.981V28.456A.984.984,0,0,0,32.381,27.475ZM36.306,7.85a2.945,2.945,0,0,0-2.944,2.944,2.884,2.884,0,0,0,.27,1.214l-4.44,2.662a1.96,1.96,0,0,1-2.711-.711l-5-8.745a2.944,2.944,0,1,0-3.716,0l-5,8.745a1.961,1.961,0,0,1-2.711.711L5.624,12.008a2.943,2.943,0,1,0-2.68,1.729,3.006,3.006,0,0,0,.472-.049L7.85,25.513H31.4l4.434-11.824a3.006,3.006,0,0,0,.472.049,2.944,2.944,0,1,0,0-5.887Z"/>
</svg>
