<svg id="Icon_ionic-ios-arrow-dropdown" data-name="Icon ionic-ios-arrow-dropdown" xmlns="http://www.w3.org/2000/svg" width="48.833" height="48.834" viewBox="0 0 48.833 48.834">
  <path id="Path_886" data-name="Path 886" d="M10.643,15.084a2.274,2.274,0,0,0,0,3.2l11.235,11.2a2.263,2.263,0,0,0,3.123.07L36.07,18.523a2.262,2.262,0,1,0-3.193-3.2l-9.509,9.368-9.521-9.614A2.264,2.264,0,0,0,10.643,15.084Z" transform="translate(1.049 4.015)" fill="#707070"/>
  <path id="Path_887" data-name="Path 887" d="M3.375,27.792A24.417,24.417,0,1,0,27.792,3.375,24.413,24.413,0,0,0,3.375,27.792Zm39.02-14.6A20.652,20.652,0,1,1,13.189,42.4,20.652,20.652,0,1,1,42.395,13.189Z" transform="translate(-3.375 -3.375)" fill="#707070"/>
</svg>
