<svg xmlns="http://www.w3.org/2000/svg" width="35.811" height="47.748" viewBox="0 0 35.811 47.748">
  <defs>
    <style>
      .cls-1 {
        fill: #fe5f00;
        opacity: 0.8;
      }
    </style>
  </defs>
  <path id="Icon_awesome-clipboard-list" data-name="Icon awesome-clipboard-list" class="cls-1" d="M31.335,5.969H23.874a5.969,5.969,0,1,0-11.937,0H4.476A4.478,4.478,0,0,0,0,10.445V43.272a4.478,4.478,0,0,0,4.476,4.476H31.335a4.478,4.478,0,0,0,4.476-4.476V10.445A4.478,4.478,0,0,0,31.335,5.969ZM8.953,39.542A2.238,2.238,0,1,1,11.191,37.3,2.233,2.233,0,0,1,8.953,39.542Zm0-8.953a2.238,2.238,0,1,1,2.238-2.238A2.233,2.233,0,0,1,8.953,30.589Zm0-8.953A2.238,2.238,0,1,1,11.191,19.4,2.233,2.233,0,0,1,8.953,21.636ZM17.906,3.73a2.238,2.238,0,1,1-2.238,2.238A2.233,2.233,0,0,1,17.906,3.73ZM29.843,38.05a.748.748,0,0,1-.746.746H15.667a.748.748,0,0,1-.746-.746V36.557a.748.748,0,0,1,.746-.746H29.1a.748.748,0,0,1,.746.746Zm0-8.953a.748.748,0,0,1-.746.746H15.667a.748.748,0,0,1-.746-.746V27.6a.748.748,0,0,1,.746-.746H29.1a.748.748,0,0,1,.746.746Zm0-8.953a.748.748,0,0,1-.746.746H15.667a.748.748,0,0,1-.746-.746V18.652a.748.748,0,0,1,.746-.746H29.1a.748.748,0,0,1,.746.746Z"/>
</svg>
