<svg xmlns="http://www.w3.org/2000/svg" width="66.676" height="69.574" viewBox="0 0 66.676 69.574">
  <path id="Icon_map-surfing" data-name="Icon map-surfing" d="M12.189,50.677C31.641,58.9,46.414,63.695,67.223,70.287a.778.778,0,0,0,.884-.675.823.823,0,0,0-.655-.923A602.428,602.428,0,0,1,3.073,44.167a1.174,1.174,0,0,0-1.541.629,1.121,1.121,0,0,0,.606,1.5c1.46.658,2.9,1.3,4.3,1.91L1.811,51.748a1.63,1.63,0,0,0,.475,2.29,1.813,1.813,0,0,0,1.951-.017ZM65.877,29.921,50.736,15.945l.335.033A5.583,5.583,0,1,0,46.5,13.563L36.233,9.883,30.69,1.825a2.646,2.646,0,0,0-4.783,1.268,2.75,2.75,0,0,0,.377,1.7l5.652,8.239a2.752,2.752,0,0,0,.984.791l6.559,2.587L28.71,21.946a5.863,5.863,0,0,0-2.869,4.137l.049,9.9L15.929,40.5a3.485,3.485,0,0,0-1.967,3,3.444,3.444,0,0,0,3.3,3.593,3.307,3.307,0,0,0,1.657-.348L31.1,41.213a3.421,3.421,0,0,0,1.738-2.325l-.016-6.163,8.459,7.614L39.726,53.306l-.016.248a3.443,3.443,0,0,0,6.853.61l1.821-14.8.016-.2a3.469,3.469,0,0,0-1.065-2.635l-7.836-7L51.3,23.692,62.259,33.827a2.712,2.712,0,0,0,1.886.774,2.664,2.664,0,0,0,2.641-2.686,2.728,2.728,0,0,0-.909-1.995Z" transform="translate(-1.44 -0.721)" fill="#6a1f74"/>
</svg>
