<svg xmlns="http://www.w3.org/2000/svg" width="79.771" height="58.014" viewBox="0 0 79.771 58.014">
  <path id="Icon_awesome-readme" data-name="Icon awesome-readme" d="M73.165,3.27H53.8A14.24,14.24,0,0,0,39.9,14.39,14.251,14.251,0,0,0,25.995,3.27H6.648A6.649,6.649,0,0,0,0,9.917V43.958a6.649,6.649,0,0,0,6.648,6.648H19.07c14.154,0,18.378,3.379,20.4,10.387a.442.442,0,0,0,.831,0c2.036-7.008,6.26-10.387,20.4-10.387H73.123a6.649,6.649,0,0,0,6.648-6.648V9.931A6.661,6.661,0,0,0,73.165,3.27ZM33.515,40.025a.482.482,0,0,1-.485.485H10.83a.482.482,0,0,1-.485-.485V36.854a.482.482,0,0,1,.485-.485H33.044a.482.482,0,0,1,.485.485v3.171Zm0-8.434a.482.482,0,0,1-.485.485H10.83a.482.482,0,0,1-.485-.485V28.42a.482.482,0,0,1,.485-.485H33.044a.482.482,0,0,1,.485.485v3.171Zm0-8.434a.482.482,0,0,1-.485.485H10.83a.482.482,0,0,1-.485-.485V19.985a.482.482,0,0,1,.485-.485H33.044a.482.482,0,0,1,.485.485v3.171ZM69.426,40.011a.482.482,0,0,1-.485.485h-22.2a.482.482,0,0,1-.485-.485V36.84a.482.482,0,0,1,.485-.485H68.955a.482.482,0,0,1,.485.485v3.171Zm0-8.434a.482.482,0,0,1-.485.485h-22.2a.482.482,0,0,1-.485-.485V28.406a.482.482,0,0,1,.485-.485H68.955a.482.482,0,0,1,.485.485v3.171Zm0-8.434a.482.482,0,0,1-.485.485h-22.2a.482.482,0,0,1-.485-.485V19.985a.482.482,0,0,1,.485-.485H68.955a.482.482,0,0,1,.485.485v3.158Z" transform="translate(0 -3.27)" fill="#6a1f74" opacity="0.8"/>
</svg>
