<svg xmlns="http://www.w3.org/2000/svg" width="63.084" height="47.108" viewBox="0 0 63.084 47.108">
  <path id="Icon_simple-staticman" data-name="Icon simple-staticman" d="M45.15,4.569l-.166.005c-.176,0-.35.008-.526.016-.1.005-.205.016-.308.026-.132.008-.263.026-.4.039l-.324.039c-.139.021-.279.047-.421.074-.2.037-.395.079-.589.126-.071.021-.145.037-.218.053l-.458.132a.769.769,0,0,1-.092.026,11.528,11.528,0,0,0-6.6,5.394c-.039.061-.079.124-.111.184s-.063.113-.095.174l-.042.1a11.53,11.53,0,0,0-1.237,5.2v2.1a.975.975,0,0,0-.981.974.985.985,0,0,0,.981.981v7.546a16.862,16.862,0,0,0-7.43,2.579,17.546,17.546,0,0,0-1.815,1.337l-.026.026a.392.392,0,0,1-.037.032c-.2.184-.384.355-.571.513A13.873,13.873,0,0,1,22.1,33.417a.124.124,0,0,0-.026.026,16.272,16.272,0,0,1-1.784.974,12.7,12.7,0,0,1-1.3.479l-.176.053a1.121,1.121,0,0,1-.142.045A14.126,14.126,0,0,1,4.913,31.822,11.307,11.307,0,0,0,16.3,29.488a11.914,11.914,0,0,0,2.31,4.939,11.7,11.7,0,0,0,1.455-.526c.153-.068.31-.145.468-.226a9.953,9.953,0,0,1-2.526-6.48.981.981,0,0,0-1.773-.563,9.353,9.353,0,0,1-14.5.805.98.98,0,0,0-1.687.85l.032.145v.008A30.411,30.411,0,0,0,19.676,50.172a30.028,30.028,0,0,0,6.875,1.5l.1.005a.989.989,0,0,0,.658-.253.972.972,0,0,0,.321-.726V45.475a17.341,17.341,0,0,1,4.2-11.374l-1.071-.637,1.284.387,6.586,1.879c.347.158.7.3,1.063.437v-2.1a11.176,11.176,0,0,1-4.184-3.139V20.214H35.9v2.657a3.5,3.5,0,0,0,3.494,3.5h1.4a3.506,3.506,0,0,0,3.481-3.163.868.868,0,0,0,.018-.168.852.852,0,0,1,1.7,0,1.177,1.177,0,0,0,.016.168A3.5,3.5,0,0,0,49.5,26.373h1.4a3.5,3.5,0,0,0,3.5-3.5V20.216h.384V30.93A11.2,11.2,0,0,1,50.6,34.067v2.1c.363-.132.718-.279,1.063-.439l6.583-1.881.013.016,1.329-.395-1.105.653A17.571,17.571,0,0,1,60.9,37.808a.976.976,0,0,0,.881.553h.058a.989.989,0,0,0,.868-.658,7.571,7.571,0,0,0-5.97-9.927V20.219a.976.976,0,1,0,0-1.952v-2.1a11.766,11.766,0,0,0-.184-2.052c-.005-.016,0-.032-.005-.047l-.037-.2L56.5,13.8a11.608,11.608,0,0,0-5.481-7.638c-.087-.053-.176-.095-.263-.145L50.6,5.932c-.137-.071-.271-.142-.405-.205-.047-.026-.095-.042-.142-.066-.232-.111-.466-.21-.7-.3-.095-.037-.184-.074-.284-.105s-.216-.079-.324-.113-.237-.074-.353-.105c-.1-.032-.195-.058-.289-.084-.205-.053-.41-.105-.621-.145-.066-.013-.132-.026-.2-.034-.158-.026-.321-.058-.481-.079-.092-.016-.184-.026-.282-.039l-.413-.042-.289-.021c-.158-.011-.321-.013-.481-.016l-.189-.008Zm8.262,4.773s-.2.2-.563.553c-.179.176-.41.376-.668.61s-.563.487-.895.763c-.237.184-.5.382-.763.579A5.667,5.667,0,0,0,54.738,15.2c.032.316.047.639.047.963v2.1h-6.88a.976.976,0,0,0-.934-.7H43.335a.976.976,0,0,0-.934.7h-6.88v-2.1a9.6,9.6,0,0,1,.479-3,6.826,6.826,0,0,0,.995.789c.105.053.316.166.637.305a7.811,7.811,0,0,0,1.963.553,9.374,9.374,0,0,0,1.352.1c.118,0,.247,0,.358-.008l.382-.026c.263-.008.508-.053.763-.079s.526-.092.789-.137.526-.126.795-.184c.263-.079.531-.158.8-.242s.531-.184.789-.284c.526-.2,1.047-.421,1.547-.663l.737-.368.716-.382c.46-.263.905-.521,1.316-.781.21-.124.408-.263.605-.384s.379-.242.553-.368c.347-.245.679-.455.958-.663s.534-.376.729-.531c.395-.3.631-.468.631-.468Zm-9.1,10.182h1.684v.558H44.308Zm-6.446.7h4.473v2.657A1.539,1.539,0,0,1,40.8,24.418H39.4a1.54,1.54,0,0,1-1.539-1.539V20.222Zm10.1,0h4.473v2.657A1.539,1.539,0,0,1,50.9,24.418H49.5a1.54,1.54,0,0,1-1.539-1.539V20.222Zm-7.867.421a1.116,1.116,0,1,0,1.123,1.113,1.13,1.13,0,0,0-.121-.5.556.556,0,0,1-1-.342.527.527,0,0,1,.079-.271l-.079-.008Zm10.1,0a1.116,1.116,0,1,0,1.118,1.113,1.1,1.1,0,0,0-.121-.5.559.559,0,0,1-1-.342.547.547,0,0,1,.071-.271c-.026,0-.053-.008-.074-.008ZM41.162,32.1a1.044,1.044,0,0,0-.489.179.972.972,0,0,0-.416.8V38.4a.98.98,0,0,0,.981.979.953.953,0,0,0,.329-.058l3.589-1.281,3.589,1.281a.942.942,0,0,0,.329.058.984.984,0,0,0,.568-.179.973.973,0,0,0,.416-.8V33.083a.98.98,0,0,0-1.31-.921l-3.586,1.281-3.586-1.284a1.062,1.062,0,0,0-.229-.053.766.766,0,0,0-.174,0Zm1.052,2.368,1.958.7v1.137l-1.958.7V34.472Zm5.875,0v2.536l-1.958-.7V35.172l1.958-.7Z" transform="translate(-0.035 -4.569)" fill="#6a1f74"/>
</svg>
