<svg xmlns="http://www.w3.org/2000/svg" width="74.389" height="37.195" viewBox="0 0 74.389 37.195">
  <path id="Icon_awesome-swimmer" data-name="Icon awesome-swimmer" d="M52.35,31.691a6.371,6.371,0,0,1-4,1.095,6.368,6.368,0,0,1-4-1.095,9.155,9.155,0,0,0-6.214-2.625H36.247a9.153,9.153,0,0,0-6.214,2.625,6.371,6.371,0,0,1-4,1.095,6.368,6.368,0,0,1-4-1.095A9.242,9.242,0,0,0,16.3,29.116l13.116-9.368-2.092-1.495a1.885,1.885,0,0,0-1.467-.3l-11.664,2.5A5.58,5.58,0,1,1,11.852,9.54l11.664-2.5A13.043,13.043,0,0,1,33.81,9.174l9.3,6.645a12.964,12.964,0,0,1,3.106,3.131l7.977,11.4A10.7,10.7,0,0,0,52.35,31.691ZM1.86,36.506h1.86a9.8,9.8,0,0,0,6.52-2.081,5.507,5.507,0,0,1,3.693-1.639h1.895a5.507,5.507,0,0,1,3.693,1.639,9.79,9.79,0,0,0,6.517,2.081,9.8,9.8,0,0,0,6.52-2.081,5.507,5.507,0,0,1,3.693-1.639h1.895a5.507,5.507,0,0,1,3.693,1.639,9.791,9.791,0,0,0,6.517,2.081,9.8,9.8,0,0,0,6.52-2.081,5.507,5.507,0,0,1,3.693-1.639H60.46a5.507,5.507,0,0,1,3.693,1.639,9.791,9.791,0,0,0,6.517,2.081h1.86a1.859,1.859,0,0,1,1.86,1.86v3.719a1.859,1.859,0,0,1-1.86,1.86H70.67a17.331,17.331,0,0,1-11.158-3.7,17.324,17.324,0,0,1-11.158,3.7,17.331,17.331,0,0,1-11.158-3.7,17.324,17.324,0,0,1-11.158,3.7,17.331,17.331,0,0,1-11.158-3.7,17.324,17.324,0,0,1-11.158,3.7H1.86A1.859,1.859,0,0,1,0,42.085V38.366A1.859,1.859,0,0,1,1.86,36.506ZM61.371,25.347a9.3,9.3,0,1,1,9.3-9.3A9.3,9.3,0,0,1,61.371,25.347Z" transform="translate(0 -6.75)" fill="#6a1f74"/>
</svg>
