<svg xmlns="http://www.w3.org/2000/svg" width="43.586" height="43.586" viewBox="0 0 43.586 43.586">
  <defs>
    <style>
      .cls-1 {
        fill: #fe5f00;
        opacity: 0.8;
      }
    </style>
  </defs>
  <path id="Icon_metro-target" data-name="Icon metro-target" class="cls-1" d="M46.157,21h-4.3A17.75,17.75,0,0,0,27.088,6.224v-4.3H21.64v4.3A17.749,17.749,0,0,0,6.867,21h-4.3v5.448h4.3A17.75,17.75,0,0,0,21.64,41.219v4.3h5.448v-4.3A17.75,17.75,0,0,0,41.861,26.445h4.3V21Zm-9.84,0H32.071a8.194,8.194,0,0,0-4.983-4.983V11.768A12.3,12.3,0,0,1,36.317,21ZM24.364,26.445a2.724,2.724,0,1,1,2.724-2.724A2.724,2.724,0,0,1,24.364,26.445ZM21.64,11.768v4.246A8.194,8.194,0,0,0,16.657,21H12.411A12.3,12.3,0,0,1,21.64,11.768ZM12.411,26.445h4.246a8.194,8.194,0,0,0,4.983,4.983v4.246A12.3,12.3,0,0,1,12.411,26.445Zm14.677,9.229V31.428a8.194,8.194,0,0,0,4.983-4.983h4.246A12.3,12.3,0,0,1,27.088,35.674Z" transform="translate(-2.571 -1.928)"/>
</svg>
