<svg xmlns="http://www.w3.org/2000/svg" width="140.383" height="140.383" viewBox="0 0 140.383 140.383">
  <path id="Icon_metro-target" data-name="Icon metro-target" d="M142.953,63.345H129.117A57.168,57.168,0,0,0,81.536,15.764V1.928H63.988V15.764A57.168,57.168,0,0,0,16.407,63.345H2.571V80.893H16.407a57.168,57.168,0,0,0,47.581,47.581v13.836H81.536V128.475a57.168,57.168,0,0,0,47.582-47.581h13.836V63.345Zm-31.693,0H97.584A26.393,26.393,0,0,0,81.536,47.3V33.621A39.612,39.612,0,0,1,111.26,63.345Zm-38.5,17.548a8.774,8.774,0,1,1,8.774-8.774A8.774,8.774,0,0,1,72.762,80.893ZM63.988,33.621V47.3A26.392,26.392,0,0,0,47.94,63.345H34.263A39.613,39.613,0,0,1,63.988,33.621ZM34.263,80.893H47.94A26.392,26.392,0,0,0,63.988,96.941v13.677A39.613,39.613,0,0,1,34.263,80.893Zm47.272,29.725V96.941A26.393,26.393,0,0,0,97.584,80.893H111.26A39.612,39.612,0,0,1,81.536,110.618Z" transform="translate(-2.571 -1.928)" fill="#fe5f00" opacity="0.8"/>
</svg>
