<svg xmlns="http://www.w3.org/2000/svg" width="25.611" height="18.093" viewBox="0 0 25.611 18.093">
  <path id="Icon_material-network-check" data-name="Icon material-network-check" d="M18.846,7.318a.567.567,0,0,0-.477.268l-.081.175-6.03,13.562a2.293,2.293,0,0,0-.3,1.118,2.336,2.336,0,0,0,4.622.489l.012-.035L19.428,7.9A.576.576,0,0,0,18.846,7.318ZM1.5,11.974,3.828,14.3a14.74,14.74,0,0,1,12.258-4.214l1.385-3.12A18.069,18.069,0,0,0,1.5,11.974ZM24.783,14.3l2.328-2.328A17.89,17.89,0,0,0,20.6,7.818L19.987,11.1A14.687,14.687,0,0,1,24.783,14.3Zm-4.657,4.657,2.328-2.328a11.5,11.5,0,0,0-3.1-2.2l-.64,3.4a8.441,8.441,0,0,1,1.409,1.129ZM6.157,16.631l2.328,2.328a8.264,8.264,0,0,1,4.691-2.328l1.49-3.353A11.5,11.5,0,0,0,6.157,16.631Z" transform="translate(-1.5 -6.687)" fill="#6a1f74"/>
</svg>
