<svg xmlns="http://www.w3.org/2000/svg" width="59.845" height="62.447" viewBox="0 0 59.845 62.447">
  <path id="Icon_map-wind-surfing" data-name="Icon map-wind-surfing" d="M61.285,63.167a9.135,9.135,0,0,1-3.682-.792,9.014,9.014,0,0,0-7.585,0,8.984,8.984,0,0,1-7.378,0,9.032,9.032,0,0,0-7.593,0,8.96,8.96,0,0,1-7.367,0,9.029,9.029,0,0,0-7.591,0,8.978,8.978,0,0,1-7.375,0,9.017,9.017,0,0,0-7.586,0,9.128,9.128,0,0,1-3.688.792V57.729a9.117,9.117,0,0,0,3.687-.792,9.147,9.147,0,0,1,7.586,0,8.975,8.975,0,0,0,7.374,0,9.159,9.159,0,0,1,7.591,0,8.96,8.96,0,0,0,7.367,0,9.162,9.162,0,0,1,7.593,0,9.077,9.077,0,0,0,3.683.792,9.188,9.188,0,0,0,3.695-.792,9.144,9.144,0,0,1,7.585,0,9.113,9.113,0,0,0,3.682.792v5.438ZM7.863,31.7a3.563,3.563,0,1,0-3.622-3.563A3.6,3.6,0,0,0,7.863,31.7ZM23.8,47.555H13.427a3.657,3.657,0,0,1-3.449-2.027L6.142,37a3.285,3.285,0,0,1-.112-.855,3.749,3.749,0,0,1,3.794-3.718l8.425-.005,5.782-2.576a1.3,1.3,0,0,1,.582-.113,1.776,1.776,0,0,1,1.028,3.243l-6.288,2.644a1.98,1.98,0,0,1-1.207.225H14.359l3.174,7.806h7.011c.692,0,1.177-.059,1.6.307l6.872,6.279a2.233,2.233,0,0,1,.118,3.237,2.424,2.424,0,0,1-3.368-.079ZM56.116,36.217a.881.881,0,0,0,.76.307,1.059,1.059,0,0,0,1.056-1.055,1.6,1.6,0,0,0-.269-.765c-6.481-12.168-23.98-8.547-26.125-7.755a.969.969,0,0,0-.566.925,1.054,1.054,0,0,0,1.056,1.041,1.344,1.344,0,0,0,.424-.059C49.617,25.059,55.206,34.678,56.116,36.217Zm2.981,1.1L37.149,50.938,17.168.72C35.048,3.051,57.783,16.717,59.1,37.318Z" transform="translate(-1.44 -0.72)" fill="#fe5f00"/>
</svg>
