<svg xmlns="http://www.w3.org/2000/svg" width="39.914" height="34.925" viewBox="0 0 39.914 34.925">
  <path id="Icon_awesome-camera" data-name="Icon awesome-camera" d="M39.914,10.981V33.433a3.743,3.743,0,0,1-3.742,3.742H3.742A3.743,3.743,0,0,1,0,33.433V10.981A3.743,3.743,0,0,1,3.742,7.239H10.6l.959-2.565a3.737,3.737,0,0,1,3.5-2.424h9.784a3.737,3.737,0,0,1,3.5,2.424l.967,2.565h6.86A3.743,3.743,0,0,1,39.914,10.981Zm-10.6,11.226a9.355,9.355,0,1,0-9.355,9.355A9.362,9.362,0,0,0,29.312,22.207Zm-2.495,0a6.86,6.86,0,1,1-6.86-6.86A6.87,6.87,0,0,1,26.817,22.207Z" transform="translate(0 -2.25)" fill="#767676"/>
</svg>
