<svg id="Icon_ionic-ios-chatboxes" data-name="Icon ionic-ios-chatboxes" xmlns="http://www.w3.org/2000/svg" width="40.449" height="40.456" viewBox="0 0 40.449 40.456">
  <path id="Path_662" data-name="Path 662" d="M36.943,11.981H15.391a3.711,3.711,0,0,0-3.705,3.705V30.693a3.7,3.7,0,0,0,3.705,3.7H27.724a1.063,1.063,0,0,1,.739.311l6.127,5.651c.34.331.9.195.9-.282V35.148c0-.584.37-.768.953-.768h.1a4.048,4.048,0,0,0,4.094-3.7v-15A3.69,3.69,0,0,0,36.943,11.981Z" transform="translate(-0.19 -0.077)" fill="#767676"/>
  <path id="Path_663" data-name="Path 663" d="M15.668,12.9H32.922V6.546a3.171,3.171,0,0,0-3.171-3.171H6.546A3.171,3.171,0,0,0,3.375,6.546V22.612a3.171,3.171,0,0,0,3.171,3.171h5.942V16.067A3.186,3.186,0,0,1,15.668,12.9Z" transform="translate(-3.375 -3.375)" fill="#767676"/>
</svg>
