<svg xmlns="http://www.w3.org/2000/svg" width="41.243" height="41.244" viewBox="0 0 41.243 41.244">
  <path id="Icon_awesome-drafting-compass" data-name="Icon awesome-drafting-compass" d="M36.814,27.744A25.521,25.521,0,0,1,30.165,31.7l4.38,7.587,4.346,1.856a1.289,1.289,0,0,0,1.786-1.031l.565-4.692-4.429-7.671Zm3.423-7.617a1.293,1.293,0,0,0-.487-1.8l-2.261-1.254a1.291,1.291,0,0,0-1.713.461,18.062,18.062,0,0,1-15.154,8.247,17.911,17.911,0,0,1-5.591-.929l5.426-9.4c.056,0,.108.017.164.017s.109-.015.164-.017L24.9,22.578a15.344,15.344,0,0,0,6.655-3.941l-4.172-7.226a7.633,7.633,0,0,0,.971-3.678,7.733,7.733,0,1,0-15.466,0,7.642,7.642,0,0,0,.971,3.678l-5.5,9.53A18.011,18.011,0,0,1,5.644,17.8a1.292,1.292,0,0,0-1.722-.429L1.687,18.665a1.292,1.292,0,0,0-.454,1.81,23.113,23.113,0,0,0,4.509,5L0,35.416l.565,4.692a1.289,1.289,0,0,0,1.786,1.031L6.7,39.284l5.7-9.878a23.123,23.123,0,0,0,8.221,1.527A23.233,23.233,0,0,0,40.236,20.127ZM20.622,5.155a2.578,2.578,0,1,1-2.578,2.578A2.578,2.578,0,0,1,20.622,5.155Z" transform="translate(0 0)" fill="#767676"/>
</svg>
