<svg xmlns="http://www.w3.org/2000/svg" width="41.513" height="30.191" viewBox="0 0 41.513 30.191">
  <path id="Icon_awesome-readme" data-name="Icon awesome-readme" d="M38.075,3.27H28a7.41,7.41,0,0,0-7.236,5.787A7.416,7.416,0,0,0,13.528,3.27H3.459A3.46,3.46,0,0,0,0,6.729V24.444A3.46,3.46,0,0,0,3.459,27.9H9.924c7.366,0,9.564,1.759,10.616,5.405a.23.23,0,0,0,.432,0C22.032,29.662,24.23,27.9,31.589,27.9h6.465a3.46,3.46,0,0,0,3.459-3.459V6.736A3.467,3.467,0,0,0,38.075,3.27ZM17.441,22.4a.251.251,0,0,1-.252.252H5.636a.251.251,0,0,1-.252-.252v-1.65a.251.251,0,0,1,.252-.252H17.2a.251.251,0,0,1,.252.252V22.4Zm0-4.389a.251.251,0,0,1-.252.252H5.636a.251.251,0,0,1-.252-.252v-1.65a.251.251,0,0,1,.252-.252H17.2a.251.251,0,0,1,.252.252v1.65Zm0-4.389a.251.251,0,0,1-.252.252H5.636a.251.251,0,0,1-.252-.252v-1.65a.251.251,0,0,1,.252-.252H17.2a.251.251,0,0,1,.252.252v1.65ZM36.13,22.39a.251.251,0,0,1-.252.252H24.324a.251.251,0,0,1-.252-.252V20.74a.251.251,0,0,1,.252-.252h11.56a.251.251,0,0,1,.252.252v1.65Zm0-4.389a.251.251,0,0,1-.252.252H24.324A.251.251,0,0,1,24.072,18v-1.65a.251.251,0,0,1,.252-.252h11.56a.251.251,0,0,1,.252.252V18Zm0-4.389a.251.251,0,0,1-.252.252H24.324a.251.251,0,0,1-.252-.252V11.969a.251.251,0,0,1,.252-.252h11.56a.251.251,0,0,1,.252.252v1.643Z" transform="translate(0 -3.27)" fill="#6a1f74" opacity="0.8"/>
</svg>
