<svg xmlns="http://www.w3.org/2000/svg" width="38.278" height="38.278" viewBox="0 0 38.278 38.278">
  <path id="Icon_awesome-share-alt-square" data-name="Icon awesome-share-alt-square" d="M38.278,6.351V36.427a4.1,4.1,0,0,1-4.1,4.1H4.1a4.1,4.1,0,0,1-4.1-4.1V6.351a4.1,4.1,0,0,1,4.1-4.1H34.177A4.1,4.1,0,0,1,38.278,6.351Zm-12.3,18.455a4.767,4.767,0,0,0-3.228,1.254L16.94,22.576a4.814,4.814,0,0,0,0-2.375l5.806-3.484a4.771,4.771,0,1,0-1.408-2.344l-5.806,3.484a4.785,4.785,0,1,0,0,7.062L21.338,28.4a4.785,4.785,0,1,0,4.636-3.6Z" transform="translate(0 -2.25)" fill="#3b5998" opacity="0.8"/>
</svg>
