<svg xmlns="http://www.w3.org/2000/svg" width="46.206" height="46.206" viewBox="0 0 46.206 46.206">
  <path id="Icon_awesome-user-circle" data-name="Icon awesome-user-circle" d="M23.1.563a23.1,23.1,0,1,0,23.1,23.1A23.1,23.1,0,0,0,23.1.563Zm0,8.943a8.2,8.2,0,1,1-8.2,8.2A8.2,8.2,0,0,1,23.1,9.506Zm0,32.046A17.852,17.852,0,0,1,9.456,35.2a10.387,10.387,0,0,1,9.176-5.571,2.28,2.28,0,0,1,.661.1,12.334,12.334,0,0,0,3.81.643,12.287,12.287,0,0,0,3.81-.643,2.279,2.279,0,0,1,.661-.1A10.387,10.387,0,0,1,36.751,35.2,17.852,17.852,0,0,1,23.1,41.552Z" transform="translate(0 -0.563)"/>
</svg>
